<svg width="275" height="168" viewBox="0 0 275 168" fill="none" xmlns="http://www.w3.org/2000/svg">
<g filter="url(#filter0_d_527_280)">
<path fill-rule="evenodd" clip-rule="evenodd" d="M30.0237 1.70373C30.4638 0.395053 31.8815 -0.309036 33.1902 0.131107C36.5945 1.27607 39.0734 4.10131 40.7108 7.83478C42.346 11.5631 43.2288 16.3632 43.4252 21.8686C43.606 26.9385 43.2051 32.6219 42.2614 38.641C46.8509 40.6605 50.8326 43.9672 53.7365 47.942C59.1265 54.1402 62.7507 67.13 66.2815 83.5006C66.9643 85.7075 67.5944 87.8875 68.1682 90.0312L68.2817 90.0009C99.2817 31.5009 120.419 8.49891 161.288 8.49891C207.282 8.49891 237.282 39.839 237.282 78.4989C237.282 105.52 233.603 122.384 227.243 132.834C253.545 134.508 274.725 138.599 269.282 148.001C264.082 156.983 259.217 155.126 252.955 152.736C245.971 150.07 237.249 146.741 224.385 157.047C218.784 161.535 208.809 159.835 197.711 155.171C189.833 154.368 180.772 153.501 171.282 153.501C165.924 154.433 161.113 155.121 156.794 155.595C151.322 157.476 145.426 158.501 139.282 158.501C133.025 158.501 127.027 157.439 121.472 155.491C120.139 155.413 118.391 154.856 116.25 154.174C111.053 152.518 103.544 150.126 94.0738 152.057C91.3044 153.856 87.9284 155.339 84.2788 156.455C79.6096 157.884 74.7678 157.632 70.5696 156.202C66.9712 155.837 63.8907 155.026 59.9861 153.23C52.8549 149.95 46.9353 145.312 42.7884 139.763C36.1539 132.93 30.1297 122.822 26.7817 112.001C25.3148 103.465 24.4472 96.8752 24.0986 91.7576C23.9378 91.2658 23.7809 90.7728 23.6281 90.2787C23.2435 88.2392 22.9027 86.2966 22.6036 84.4461C10.485 76.4733 4.02536 67.5636 5.28162 55.001C5.28162 45.7933 11.6439 40.339 20.4686 37.9468C19.788 34.8471 18.984 31.9715 18.0714 29.3702C16.3688 24.5171 14.3629 20.8313 12.2518 18.4002C10.1445 15.9735 8.15922 15.039 6.44329 15.0001C5.06293 14.9688 3.96933 13.8244 4.00066 12.444C4.03198 11.0636 5.17638 9.97004 6.55674 10.0014C10.1475 10.0829 13.354 12.0437 16.0271 15.1219L14.1394 16.7611L16.0271 15.1219C18.6964 18.1958 20.9658 22.5167 22.7894 27.715C23.7839 30.5497 24.6475 33.6504 25.3709 36.9596C27.5952 36.651 29.9151 36.501 32.2816 36.501C34.042 36.501 35.7691 36.6967 37.4445 37.0641C38.2592 31.602 38.588 26.5216 38.4283 22.0468C38.245 16.907 37.4251 12.7916 36.1319 9.84303C34.841 6.89963 33.2231 5.4174 31.5963 4.87025C30.2876 4.43011 29.5835 3.01241 30.0237 1.70373Z" fill="#EEEEEE"/>
</g>
<g filter="url(#filter1_i_527_280)">
<path fill-rule="evenodd" clip-rule="evenodd" d="M191.004 59.8043C189.124 57.8697 186.914 56.2796 184.47 55.1083C181.719 53.7903 178.725 53.0278 175.658 52.8674C172.59 52.7069 169.508 53.1516 166.59 54.1789C166.52 54.2033 166.451 54.2281 166.382 54.2532C166.252 54.3369 166.115 54.414 165.973 54.4837C163.778 55.5577 161.653 56.7498 159.615 58.0483C159.288 58.3091 158.968 58.5786 158.655 58.8568C158.206 59.2557 157.693 59.5352 157.153 59.6975C154.663 61.4504 152.323 63.3663 150.164 65.4211C145.601 69.7633 141.962 74.6166 139.423 79.6788C136.885 84.7401 135.508 89.8837 135.296 94.8105C135.084 99.729 136.034 104.359 138.046 108.473C139.017 110.457 138.196 112.853 136.211 113.824C134.227 114.795 131.831 113.973 130.86 111.989C128.23 106.614 127.037 100.647 127.303 94.4659C127.569 88.293 129.284 82.0514 132.272 76.0923C135.261 70.1339 139.477 64.5472 144.649 59.6258C147.791 56.6354 151.258 53.9174 154.972 51.5221C157.675 49.4236 160.701 47.7708 163.933 46.6328C167.833 45.26 171.959 44.6629 176.076 44.8783C180.192 45.0937 184.22 46.1174 187.927 47.894C191.634 49.6705 194.947 52.1644 197.674 55.2336C197.915 55.5044 198.112 55.7987 198.266 56.108C200.488 59.0693 202.187 62.392 203.285 65.9303C204.529 69.9366 204.977 74.1425 204.602 78.3083C204.227 82.4744 203.035 86.5189 201.093 90.2098C199.376 93.4719 197.103 96.4002 194.378 98.8649C194.254 99.0264 194.116 99.1805 193.964 99.3255C191.872 101.323 189.41 102.896 186.72 103.953C184.029 105.009 181.16 105.53 178.275 105.482C175.391 105.435 172.547 104.819 169.908 103.669C167.269 102.518 164.887 100.855 162.901 98.7743C162.392 98.2411 162.059 97.604 161.901 96.9349C161.644 96.553 161.448 96.1198 161.332 95.646C160.946 94.062 160.87 92.4171 161.112 90.8046C161.353 89.192 161.907 87.6416 162.744 86.2426C163.581 84.8434 164.686 83.6231 165.997 82.6535C167.308 81.6838 168.798 80.9848 170.382 80.5981C172.528 80.0741 174.693 81.3891 175.217 83.5352C175.741 85.6813 174.426 87.8459 172.28 88.3698C171.73 88.5039 171.212 88.7465 170.754 89.0852C170.296 89.4239 169.906 89.8533 169.608 90.3509C169.311 90.8487 169.111 91.4051 169.023 91.9889C168.941 92.5379 168.96 93.0995 169.08 93.6448C170.248 94.7718 171.61 95.6832 173.105 96.3353C174.772 97.0619 176.573 97.453 178.408 97.4833C180.242 97.5137 182.073 97.1826 183.795 96.5061C185.14 95.9781 186.397 95.2482 187.522 94.3434C187.713 94.0871 187.937 93.8497 188.194 93.6377C190.587 91.6665 192.565 89.2362 194.013 86.4842C195.462 83.732 196.353 80.7104 196.634 77.5908C196.915 74.471 196.58 71.3143 195.645 68.3015C194.71 65.2886 193.194 62.4803 191.182 60.0382C191.12 59.9618 191.06 59.8838 191.004 59.8043Z" fill="white"/>
</g>
<defs>
<filter id="filter0_d_527_280" x="0" y="0" width="274.141" height="167.669" filterUnits="userSpaceOnUse" color-interpolation-filters="sRGB">
<feFlood flood-opacity="0" result="BackgroundImageFix"/>
<feColorMatrix in="SourceAlpha" type="matrix" values="0 0 0 0 0 0 0 0 0 0 0 0 0 0 0 0 0 0 127 0" result="hardAlpha"/>
<feOffset dy="4"/>
<feGaussianBlur stdDeviation="2"/>
<feComposite in2="hardAlpha" operator="out"/>
<feColorMatrix type="matrix" values="0 0 0 0 0 0 0 0 0 0 0 0 0 0 0 0 0 0 0.25 0"/>
<feBlend mode="normal" in2="BackgroundImageFix" result="effect1_dropShadow_527_280"/>
<feBlend mode="normal" in="SourceGraphic" in2="effect1_dropShadow_527_280" result="shape"/>
</filter>
<filter id="filter1_i_527_280" x="127.267" y="44.8354" width="77.4639" height="73.3965" filterUnits="userSpaceOnUse" color-interpolation-filters="sRGB">
<feFlood flood-opacity="0" result="BackgroundImageFix"/>
<feBlend mode="normal" in="SourceGraphic" in2="BackgroundImageFix" result="shape"/>
<feColorMatrix in="SourceAlpha" type="matrix" values="0 0 0 0 0 0 0 0 0 0 0 0 0 0 0 0 0 0 127 0" result="hardAlpha"/>
<feOffset dy="4"/>
<feGaussianBlur stdDeviation="2"/>
<feComposite in2="hardAlpha" operator="arithmetic" k2="-1" k3="1"/>
<feColorMatrix type="matrix" values="0 0 0 0 0 0 0 0 0 0 0 0 0 0 0 0 0 0 0.25 0"/>
<feBlend mode="normal" in2="shape" result="effect1_innerShadow_527_280"/>
</filter>
</defs>
</svg>
