<svg width="30" height="23" viewBox="0 0 30 23" fill="none" xmlns="http://www.w3.org/2000/svg">
<path d="M27.1875 0H2.8125C1.25918 0 0 1.25918 0 2.8125V19.6875C0 21.2408 1.25918 22.5 2.8125 22.5H27.1875C28.7408 22.5 30 21.2408 30 19.6875V2.8125C30 1.25918 28.7408 0 27.1875 0ZM27.1875 2.8125V5.20342C25.8737 6.27328 23.7792 7.93688 19.3015 11.4431C18.3148 12.2193 16.3601 14.084 15 14.0623C13.6402 14.0842 11.6848 12.219 10.6985 11.4431C6.22148 7.9374 4.12646 6.27346 2.8125 5.20342V2.8125H27.1875ZM2.8125 19.6875V8.81238C4.15512 9.88178 6.05912 11.3824 8.96121 13.6549C10.2419 14.663 12.4847 16.8885 15 16.8749C17.5029 16.8885 19.7173 14.6953 21.0383 13.6554C23.9403 11.3829 25.8448 9.88189 27.1875 8.81244V19.6875H2.8125Z" fill="#333435"/>
</svg>
