<svg width="30" height="25" viewBox="0 0 30 25" fill="none" xmlns="http://www.w3.org/2000/svg">
<path d="M29.3189 5.77666L26.1578 0.730607C25.8753 0.277631 25.3737 0 24.8379 0H5.16021C4.62443 0 4.12275 0.277631 3.84025 0.730607L0.679158 5.77666C-0.95253 8.38249 0.494071 12.0063 3.54314 12.4203C3.76232 12.4495 3.98637 12.4641 4.21042 12.4641C5.65215 12.4641 6.92828 11.831 7.80501 10.8519C8.68174 11.831 9.96273 12.4641 11.3996 12.4641C12.8413 12.4641 14.1174 11.831 14.9942 10.8519C15.8709 11.831 17.1519 12.4641 18.5888 12.4641C20.0305 12.4641 21.3066 11.831 22.1833 10.8519C23.0649 11.831 24.3411 12.4641 25.7779 12.4641C26.0069 12.4641 26.226 12.4495 26.4452 12.4203C29.504 12.0112 30.9555 8.38736 29.3189 5.77666V5.77666ZM25.7877 14.0276C25.3006 14.0276 24.8184 13.9546 24.3508 13.8426V18.7035H5.64728V13.8426C5.17969 13.9497 4.69749 14.0276 4.21042 14.0276C3.91818 14.0276 3.62107 14.0082 3.3337 13.9692C3.06094 13.9302 2.79305 13.8669 2.5349 13.7939V23.3794C2.5349 24.2415 3.23141 24.938 4.09353 24.938H25.9143C26.7764 24.938 27.4729 24.2415 27.4729 23.3794V13.7939C27.2099 13.8718 26.9469 13.9351 26.6741 13.9692C26.377 14.0082 26.0848 14.0276 25.7877 14.0276Z" fill="#333435"/>
</svg>
