<svg width="30" height="29" viewBox="0 0 30 29" fill="none" xmlns="http://www.w3.org/2000/svg">
<path d="M0 26.4696L5.51027 28.2354L7.46523 26.2805L3.76818 22.5834L0 26.4696ZM6.87185 13.2338C6.58154 13.4901 6.37107 13.8244 6.26557 14.1969C6.16006 14.5695 6.16396 14.9645 6.27681 15.3349L6.99648 17.6969L4.18785 20.5061L9.49463 25.8128L12.2994 23.0081L14.6564 23.7294C15.4135 23.961 16.2363 23.7288 16.7602 23.1349L18.7207 20.8386L9.16155 11.2794L6.87185 13.2338ZM29.1131 4.37174L25.6278 0.886458C24.4979 -0.243501 22.6841 -0.300302 21.4852 0.756863L10.5082 10.1296L19.8705 19.4925L29.2427 8.51492C30.3004 7.31603 30.2436 5.50225 29.1131 4.37174Z" fill="#333435"/>
</svg>
